HIERARCHY
ROOT Hips
{
	OFFSET -0.001795 -0.223333 0.028219
	CHANNELS 6 Xposition Yposition Zposition Zrotation Yrotation Xrotation 
	JOINT LeftUpLeg
	{
		OFFSET 0.069520 -0.091406 -0.006815
		CHANNELS 3 Zrotation Yrotation Xrotation
		JOINT LeftLeg
		{
			OFFSET 0.034277 -0.375199 -0.004496
			CHANNELS 3 Zrotation Yrotation Xrotation
			JOINT LeftFoot
			{
				OFFSET -0.013596 -0.397961 -0.043693
				CHANNELS 3 Zrotation Yrotation Xrotation
				JOINT LeftToe
				{
					OFFSET 0.026358 -0.055791 0.119288
					CHANNELS 3 Zrotation Yrotation Xrotation
					End Site
					{
						OFFSET 0.000000 0.000000 0.000000
					}
				}
			}
		}
	}
	JOINT RightUpLeg
	{
		OFFSET -0.067670 -0.090522 -0.004320
		CHANNELS 3 Zrotation Yrotation Xrotation
		JOINT RightLeg
		{
			OFFSET -0.038290 -0.382569 -0.008850
			CHANNELS 3 Zrotation Yrotation Xrotation
			JOINT RightFoot
			{
				OFFSET 0.015774 -0.398415 -0.042312
				CHANNELS 3 Zrotation Yrotation Xrotation
				JOINT RightToe
				{
					OFFSET -0.025372 -0.048144 0.123348
					CHANNELS 3 Zrotation Yrotation Xrotation
					End Site
					{
						OFFSET 0.000000 0.000000 0.000000
					}
				}
			}
		}
	}
	JOINT Spine
	{
		OFFSET -0.002533 0.108963 -0.026696
		CHANNELS 3 Zrotation Yrotation Xrotation
		JOINT Spine1
		{
			OFFSET 0.005487 0.135180 0.001092
			CHANNELS 3 Zrotation Yrotation Xrotation
			JOINT Spine2
			{
				OFFSET 0.001457 0.052922 0.025425
				CHANNELS 3 Zrotation Yrotation Xrotation
				JOINT Neck
				{
					OFFSET -0.002778 0.213870 -0.042857
					CHANNELS 3 Zrotation Yrotation Xrotation
					JOINT Head
					{
						OFFSET 0.005152 0.064970 0.051349
						CHANNELS 3 Zrotation Yrotation Xrotation
						End Site
						{
							OFFSET 0.000000 0.000000 0.000000
						}
					}
				}
				JOINT LeftShoulder
				{
					OFFSET 0.078845 0.121749 -0.034090
					CHANNELS 3 Zrotation Yrotation Xrotation
					JOINT LeftArm
					{
						OFFSET 0.090977 0.030469 -0.008868
						CHANNELS 3 Zrotation Yrotation Xrotation
						JOINT LeftForeArm
						{
							OFFSET 0.259612 -0.012772 -0.027456
							CHANNELS 3 Zrotation Yrotation Xrotation
							JOINT LeftHand
							{
								OFFSET 0.249234 0.008986 -0.001171
								CHANNELS 3 Zrotation Yrotation Xrotation
								End Site
								{
									OFFSET 0.000000 0.000000 0.000000
								}
							}
						}
					}
				}
				JOINT RightShoulder
				{
					OFFSET -0.081759 0.118833 -0.038615
					CHANNELS 3 Zrotation Yrotation Xrotation
					JOINT RightArm
					{
						OFFSET -0.096012 0.032551 -0.009143
						CHANNELS 3 Zrotation Yrotation Xrotation
						JOINT RightForeArm
						{
							OFFSET -0.253742 -0.013329 -0.021401
							CHANNELS 3 Zrotation Yrotation Xrotation
							JOINT RightHand
							{
								OFFSET -0.255298 0.007772 -0.005559
								CHANNELS 3 Zrotation Yrotation Xrotation
								End Site
								{
									OFFSET 0.000000 0.000000 0.000000
								}
							}
						}
					}
				}
			}
		}
	}
}
MOTION
Frames: 14
Frame Time: 0.050000
0.000000 0.938691 0.000000 5.212826 -7.492394 5.356613 1.192869 -1.042909 -13.693406 -1.779023 0.796316 37.007973 5.081364 11.491343 5.736329 0.000000 0.000000 0.000000 -3.698778 2.233128 -25.055309 5.788897 -0.201897 27.465840 -6.091457 -16.289810 5.465967 0.000000 0.000000 0.000000 5.760197 -1.518942 17.769947 11.720999 -2.565747 -21.202311 4.171076 3.992145 28.527451 -3.045952 3.330720 -27.896221 0.000000 0.000000 0.000000 -25.826572 2.231457 -2.762466 -42.170088 -10.765455 -3.710824 1.054557 -46.835000 2.386998 0.000000 0.000000 0.000000 23.666957 7.710396 3.152358 45.340034 14.088602 -1.791789 -18.040233 18.240876 -1.606905 0.000000 0.000000 0.000000 
-0.011541 0.942388 0.018455 4.990942 -7.046653 5.278832 -1.125143 -1.472979 -15.719885 -1.041034 0.283849 35.046055 5.583459 11.820691 0.343337 0.000000 0.000000 0.000000 -2.232411 2.210289 -22.896415 6.277623 -0.425324 26.507595 -7.151992 -18.475524 6.380510 0.000000 0.000000 0.000000 6.435404 -1.632082 17.472946 12.081696 -2.452991 -22.563336 4.874513 3.739055 29.133748 -1.437568 2.432950 -28.214539 0.000000 0.000000 0.000000 -26.910786 2.639899 -3.145774 -43.786750 -12.642436 -3.217297 6.458911 -44.915417 0.189405 0.000000 0.000000 0.000000 21.193214 6.156409 2.247456 47.598235 11.292673 -2.840945 -14.135289 20.251311 -1.270121 0.000000 0.000000 0.000000 
-0.026323 0.941976 0.036423 5.082424 -8.078647 3.485516 -3.001262 -1.876250 -17.547012 -1.438750 0.593870 34.367861 5.139831 10.418815 -3.016920 0.000000 0.000000 0.000000 -0.699376 2.077657 -19.636952 4.884355 0.163236 26.888219 -6.477573 -17.022318 5.881174 0.000000 0.000000 0.000000 5.276516 -1.408238 18.293915 11.274591 -2.286271 -22.711816 4.759956 3.833212 28.371973 -2.957075 3.208659 -28.848621 0.000000 0.000000 0.000000 -26.005371 3.589833 -3.465085 -44.428218 -13.272506 -2.964360 6.500378 -45.770552 0.292645 0.000000 0.000000 0.000000 18.695628 4.000481 0.907948 52.368572 8.719440 -3.903334 -14.552517 21.711177 -1.433557 0.000000 0.000000 0.000000 
-0.045191 0.942409 0.052554 5.163903 -10.044529 2.953376 -5.421615 -2.382956 -19.362317 -1.848038 0.913494 31.738437 4.842904 9.602544 -4.613077 0.000000 0.000000 0.000000 0.415186 1.969855 -17.464659 4.984586 0.317944 26.789154 -6.784920 -17.450786 4.771598 0.000000 0.000000 0.000000 3.433848 -0.997705 17.755900 12.859441 -2.675751 -22.654176 4.370257 5.571152 29.113846 -2.557687 3.140700 -30.329561 0.000000 0.000000 0.000000 -25.889696 4.311809 -4.110351 -45.705285 -13.256853 -3.003968 8.711673 -45.670897 -0.634123 0.000000 0.000000 0.000000 19.522818 2.678249 0.309846 51.399068 7.260132 -4.567877 -12.242401 22.949106 -1.113588 0.000000 0.000000 0.000000 
-0.069421 0.940703 0.066352 5.319609 -11.019802 1.928803 -8.962469 -3.114333 -20.803681 -2.942824 1.129564 25.992600 2.968901 5.408780 -4.138310 0.000000 0.000000 0.000000 1.767322 1.632886 -14.002171 4.116436 0.555560 24.642335 -7.072212 -17.475580 2.350495 0.000000 0.000000 0.000000 1.613448 -0.648758 17.794562 12.588737 -2.835754 -21.349065 3.844187 6.261571 27.574487 -2.564583 3.168653 -30.805167 0.000000 0.000000 0.000000 -25.234974 5.467918 -4.850938 -46.880023 -14.021951 -2.532717 8.884530 -45.985496 -0.731069 0.000000 0.000000 0.000000 18.764685 3.311919 0.643674 53.837313 5.515552 -5.265995 -12.199753 23.424943 -1.137024 0.000000 0.000000 0.000000 
-0.100075 0.935056 0.077303 5.275500 -13.524633 2.001919 -10.857245 -3.480008 -21.884136 -4.746081 1.601324 20.524590 1.837294 3.410630 -2.058550 0.000000 0.000000 0.000000 3.179753 1.600986 -13.001818 4.584968 0.613572 24.628895 -7.161104 -17.202033 0.761397 0.000000 0.000000 0.000000 -0.451895 -0.233636 16.194235 12.499723 -2.950622 -20.392056 3.322932 6.874100 28.393225 -3.194421 3.360251 -29.931385 0.000000 0.000000 0.000000 -25.400647 5.862288 -4.789342 -48.702019 -15.574657 -2.097875 12.381139 -46.209210 -1.873232 0.000000 0.000000 0.000000 17.748724 3.657330 0.657714 55.536638 5.411679 -5.506343 -11.595543 24.854409 -1.136341 0.000000 0.000000 0.000000 
-0.137134 0.927803 0.086340 4.376550 -14.945558 1.423193 -11.126794 -3.380551 -21.139327 -5.282657 1.660928 17.763100 2.874581 6.020419 -0.273681 0.000000 0.000000 0.000000 4.713732 1.432601 -11.273596 5.743045 0.393295 24.607996 -7.691226 -17.591764 -1.734906 0.000000 0.000000 0.000000 -1.848901 0.012415 15.716669 11.371826 -2.608769 -20.958912 3.141596 7.117251 29.193494 -1.453664 2.309815 -29.556279 0.000000 0.000000 0.000000 -25.157617 4.256366 -3.428546 -49.479513 -17.354979 -1.563298 18.300558 -45.525723 -4.008573 0.000000 0.000000 0.000000 17.561256 4.478550 0.936170 55.987129 5.123052 -5.735399 -10.283783 25.520223 -0.952251 0.000000 0.000000 0.000000 
-0.179286 0.917407 0.094275 3.019113 -16.216297 0.164519 -10.809503 -3.022259 -18.892770 -4.739657 1.707610 19.194143 4.734600 9.909090 -2.537882 0.000000 0.000000 0.000000 5.792116 1.362958 -10.368454 8.359142 0.027610 28.941049 -8.993945 -20.434454 -1.886108 0.000000 0.000000 0.000000 -3.121652 0.251620 16.308824 11.609609 -2.633752 -21.408336 1.703025 7.403715 30.008502 -3.135445 3.161393 -29.789453 0.000000 0.000000 0.000000 -25.639861 4.006857 -3.052423 -49.055250 -19.962538 -0.717980 19.643343 -43.550850 -4.179269 0.000000 0.000000 0.000000 17.022052 5.543839 1.410166 57.096657 6.034748 -5.545070 -10.363009 26.786798 -1.022524 0.000000 0.000000 0.000000 
-0.224880 0.908477 0.100964 2.258053 -18.668665 -1.063081 -8.230621 -2.531627 -18.282787 -5.666525 2.640155 22.857151 6.873410 15.161362 -6.806368 0.000000 0.000000 0.000000 6.310339 1.365534 -10.167111 12.401991 -0.683880 34.013177 -11.897474 -26.660943 -1.608795 0.000000 0.000000 0.000000 -4.741386 0.586061 16.483510 10.213025 -2.423215 -20.891789 2.222995 8.005821 31.142941 -2.145770 2.525985 -32.399530 0.000000 0.000000 0.000000 -27.230206 1.838787 -1.302233 -46.567518 -22.173835 -0.298124 23.540774 -38.733744 -4.860528 0.000000 0.000000 0.000000 17.413567 7.164217 2.013692 56.518290 9.333058 -4.044170 -9.692825 25.870397 -0.898566 0.000000 0.000000 0.000000 
-0.271834 0.906838 0.105821 1.833388 -19.521054 -2.263716 -6.272306 -2.037249 -16.008970 -4.000696 2.287859 24.454653 7.068144 15.889290 -7.552563 0.000000 0.000000 0.000000 4.580140 1.573156 -11.923449 19.075728 -2.780314 37.169100 -11.971769 -27.163944 4.927798 0.000000 0.000000 0.000000 -6.919800 1.091419 17.744042 10.309692 -2.421581 -21.194764 1.575230 8.157032 31.619161 -2.457581 2.672099 -33.514191 0.000000 0.000000 0.000000 -28.973994 0.726015 -0.448359 -45.402039 -22.646494 -0.415578 24.390482 -36.263216 -4.739644 0.000000 0.000000 0.000000 18.775718 8.277689 2.493842 55.105794 9.709742 -3.823437 -8.852884 26.531151 -0.775530 0.000000 0.000000 0.000000 
-0.317770 0.914049 0.108157 1.216941 -20.747012 -3.061716 -3.513739 -1.469476 -13.869637 -2.466723 1.857365 24.798397 5.975237 13.327189 -7.213978 0.000000 0.000000 0.000000 1.907336 1.611065 -13.291915 22.043649 -3.610385 39.186293 -10.254311 -24.385740 9.282887 0.000000 0.000000 0.000000 -7.829982 1.255060 17.389412 8.969317 -2.371192 -19.411707 2.223981 7.937305 30.905119 -3.703325 3.160752 -32.880069 0.000000 0.000000 0.000000 -29.419721 2.269877 -1.203895 -47.272973 -21.449176 -0.781752 20.910474 -37.128966 -3.599026 0.000000 0.000000 0.000000 17.278017 9.803114 3.070005 57.029030 10.302838 -3.539502 -8.464774 28.197610 -0.797063 0.000000 0.000000 0.000000 
-0.363088 0.922043 0.106892 0.306820 -19.905173 -1.383215 -1.706376 -1.247185 -14.561073 -1.574421 1.407268 24.670662 4.704348 10.013644 -5.974310 0.000000 0.000000 0.000000 1.770453 2.100907 -16.350571 16.077208 -1.660923 37.867252 -11.058913 -25.763416 3.501676 0.000000 0.000000 0.000000 -7.192580 1.027652 16.332810 8.636907 -2.282814 -19.204539 1.027480 7.763246 30.351090 -4.347117 3.522256 -32.689901 0.000000 0.000000 0.000000 -27.454249 2.342097 -1.315004 -47.889481 -20.404985 -0.993914 16.838101 -38.067557 -2.473437 0.000000 0.000000 0.000000 18.123581 10.558668 3.512008 58.137362 10.475293 -3.417100 -9.982557 29.390738 -1.158675 0.000000 0.000000 0.000000 
-0.408936 0.927676 0.101561 -0.598837 -18.260221 0.011450 1.258701 -0.833326 -14.974175 -1.171888 1.089561 24.688018 5.304392 11.243715 -4.475792 0.000000 0.000000 0.000000 2.846547 2.320420 -17.034867 9.670306 0.033547 32.235865 -11.245187 -26.081760 4.615942 0.000000 0.000000 0.000000 -6.722175 0.932822 16.666296 7.734204 -1.903368 -20.193443 1.254080 7.657691 30.591786 -5.998415 4.485569 -33.671230 0.000000 0.000000 0.000000 -27.384892 2.377289 -1.659989 -48.513717 -19.419255 -1.288747 16.055828 -40.936921 -2.457714 0.000000 0.000000 0.000000 17.566064 10.347422 3.672580 59.845685 11.067868 -3.238268 -9.145299 29.322758 -0.855174 0.000000 0.000000 0.000000 
-0.454618 0.930133 0.092974 -1.177639 -14.271397 0.882615 1.862255 -0.867691 -15.795666 -1.587081 0.934221 25.674026 6.381497 13.482491 -5.996440 0.000000 0.000000 0.000000 4.891799 2.465442 -16.784866 7.738485 -0.139952 26.798892 -11.959151 -27.332731 8.703844 0.000000 0.000000 0.000000 -6.801745 0.865474 17.218443 6.639468 -1.527834 -20.589331 1.655867 6.604146 29.638200 -6.557935 4.960584 -33.745057 0.000000 0.000000 0.000000 -28.017009 2.282227 -2.266508 -46.817727 -18.439445 -1.479002 14.013726 -44.321299 -2.218911 0.000000 0.000000 0.000000 17.512026 9.632699 3.679391 60.475516 9.561453 -3.914457 -6.626936 31.193203 -0.175298 0.000000 0.000000 0.000000 
